<?xml version="1.0" encoding="UTF-8" standalone="no"?>
<svg
   xmlns:dc="http://purl.org/dc/elements/1.1/"
   xmlns:cc="http://creativecommons.org/ns#"
   xmlns:rdf="http://www.w3.org/1999/02/22-rdf-syntax-ns#"
   xmlns:svg="http://www.w3.org/2000/svg"
   xmlns="http://www.w3.org/2000/svg"
   xmlns:sodipodi="http://sodipodi.sourceforge.net/DTD/sodipodi-0.dtd"
   xmlns:inkscape="http://www.inkscape.org/namespaces/inkscape"
   viewBox="0 0 22 22"
   version="1.1"
   id="svg6"
   sodipodi:docname="password.svg"
   inkscape:version="0.92.3 (2405546, 2018-03-11)">
  <metadata
     id="metadata10">
    <rdf:RDF>
      <cc:Work
         rdf:about="">
        <dc:format>image/svg+xml</dc:format>
        <dc:type
           rdf:resource="http://purl.org/dc/dcmitype/StillImage" />
      </cc:Work>
    </rdf:RDF>
  </metadata>
  <sodipodi:namedview
     pagecolor="#ffffff"
     bordercolor="#666666"
     borderopacity="1"
     objecttolerance="10"
     gridtolerance="10"
     guidetolerance="10"
     inkscape:pageopacity="0"
     inkscape:pageshadow="2"
     inkscape:window-width="1920"
     inkscape:window-height="1019"
     id="namedview8"
     showgrid="false"
     showguides="true"
     inkscape:guide-bbox="true"
     inkscape:zoom="2.6818182"
     inkscape:cx="-135.09794"
     inkscape:cy="45.559503"
     inkscape:window-x="0"
     inkscape:window-y="0"
     inkscape:window-maximized="1"
     inkscape:current-layer="svg6" />
  <defs
     id="defs3051">
    <style
       type="text/css"
       id="current-color-scheme">
      .ColorScheme-Text {
        color:#232629;
      }
      </style>
  </defs>
  <path
     style="fill:#232629;stroke:none;stroke-width:0.94060904px;stroke-linecap:butt;stroke-linejoin:miter;stroke-opacity:1;fill-opacity:1"
     d="M 16.718566,6.6129915 A 4.0598323,4.0598323 0 0 0 13.053497,8.9626769 H 2.6663804 l -1.33008,1.6423911 1.2878261,1.778339 1.3153829,-1.315383 1.3153831,1.315383 1.3153827,-1.315383 1.3153834,1.315383 1.3153825,-1.315383 1.3153839,1.315383 h 2.537072 a 4.0598323,4.0598323 0 0 0 3.679766,2.349685 4.0598323,4.0598323 0 0 0 4.056377,-4.06005 v -0.0147 A 4.0598323,4.0598323 0 0 0 16.718566,6.6129915 Z m 1.715877,1.7287365 a 1.0217404,1.0217404 0 0 1 1.023279,1.0177684 v 0.00368 A 1.0217404,1.0217404 0 0 1 18.438117,10.384618 1.0217404,1.0217404 0 0 1 17.414837,9.3650134 1.0217404,1.0217404 0 0 1 18.434443,8.341734 Z"
     id="path827"
     inkscape:connector-curvature="0" />
</svg>
