<?xml version="1.0" encoding="UTF-8" standalone="no"?>
<!-- Created with Inkscape (http://www.inkscape.org/) -->

<svg
   width="256"
   height="256"
   viewBox="0 0 256 256"
   id="svg2"
   version="1.1"
   inkscape:version="1.1 (1:1.1+202105261517+ce6663b3b7)"
   sodipodi:docname="lliurex-up.svg"
   xmlns:inkscape="http://www.inkscape.org/namespaces/inkscape"
   xmlns:sodipodi="http://sodipodi.sourceforge.net/DTD/sodipodi-0.dtd"
   xmlns="http://www.w3.org/2000/svg"
   xmlns:svg="http://www.w3.org/2000/svg"
   xmlns:rdf="http://www.w3.org/1999/02/22-rdf-syntax-ns#"
   xmlns:cc="http://creativecommons.org/ns#"
   xmlns:dc="http://purl.org/dc/elements/1.1/">
  <defs
     id="defs4">
    <linearGradient
       id="rect3438-6-0-6-7-2_60_-61"
       gradientUnits="userSpaceOnUse"
       x1="-461.39209"
       y1="370.95309"
       x2="-461.39209"
       y2="666.9834"
       gradientTransform="matrix(0.9954,0,0,-0.9999,609.2166,666.5718)">
      <stop
         offset="0"
         style="stop-color:#000000"
         id="stop29032" />
      <stop
         offset="1"
         style="stop-color:#000000;stop-opacity:0.5882"
         id="stop29034" />
    </linearGradient>
    <linearGradient
       id="rect3438-6-0-1-1_60_-60"
       gradientUnits="userSpaceOnUse"
       x1="-456.38821"
       y1="371.95309"
       x2="-456.38821"
       y2="668.63483"
       gradientTransform="matrix(0.9867,0,0,-0.9918,600.2651,662.6824)">
      <stop
         offset="0"
         style="stop-color:#000000"
         id="stop29038" />
      <stop
         offset="1"
         style="stop-color:#000000;stop-opacity:0.5882"
         id="stop29040" />
    </linearGradient>
  </defs>
  <sodipodi:namedview
     id="base"
     pagecolor="#ffffff"
     bordercolor="#666666"
     borderopacity="1.0"
     inkscape:pageopacity="0.0"
     inkscape:pageshadow="2"
     inkscape:zoom="0.9899495"
     inkscape:cx="54.548237"
     inkscape:cy="70.710678"
     inkscape:document-units="px"
     inkscape:current-layer="g962"
     showgrid="false"
     units="px"
     showguides="true"
     inkscape:guide-bbox="true"
     inkscape:snap-intersection-paths="false"
     inkscape:snap-midpoints="true"
     inkscape:window-width="1920"
     inkscape:window-height="879"
     inkscape:window-x="0"
     inkscape:window-y="0"
     inkscape:window-maximized="1"
     inkscape:pagecheckerboard="0">
    <sodipodi:guide
       position="128.92857,237.85714"
       orientation="0,1"
       id="guide4147"
       inkscape:locked="false" />
    <sodipodi:guide
       position="18.214286,162.14286"
       orientation="1,0"
       id="guide4149"
       inkscape:locked="false" />
    <sodipodi:guide
       position="237.85714,66.785714"
       orientation="1,0"
       id="guide4151"
       inkscape:locked="false" />
    <sodipodi:guide
       position="198.21429,17.5"
       orientation="0,1"
       id="guide4153"
       inkscape:locked="false" />
  </sodipodi:namedview>
  <metadata
     id="metadata7">
    <rdf:RDF>
      <cc:Work
         rdf:about="">
        <dc:format>image/svg+xml</dc:format>
        <dc:type
           rdf:resource="http://purl.org/dc/dcmitype/StillImage" />
      </cc:Work>
    </rdf:RDF>
  </metadata>
  <g
     inkscape:label="Capa 1"
     inkscape:groupmode="layer"
     id="layer1"
     transform="translate(0,-796.36216)">
    <g
       id="g29119"
       transform="matrix(0.74931131,0,0,0.74931131,16.298157,815.16006)">
      <g
         id="g962"
         transform="matrix(1.523394,0,0,1.523394,-80.067711,-67.2529)">
        <g
           id="g14544"
           style="fill:#ff0000"
           transform="matrix(0.19182392,0,0,0.19182392,54.502436,43.910131)">
          <g
             id="g14479"
             style="fill:#ff0000">
            <path
               d="M 198.5,820.9 H 183.4 V 452.6 H 92.9 V 820.9 H 77.8 c -11.8,0 -21.5,9.7 -21.5,21.5 v 15.1 c 0,11.8 9.7,21.5 21.5,21.5 h 120.6 c 11.8,0 21.5,-9.7 21.5,-21.5 v -15.1 c 0.1,-11.8 -9.6,-21.5 -21.4,-21.5 z"
               id="path14467"
               style="fill:#ff0000" />
            <path
               d="M 929.7,820.9 H 914.6 V 452.6 H 824.1 V 820.9 H 809 c -11.8,0 -21.5,9.7 -21.5,21.5 v 15.1 c 0,11.8 9.7,21.5 21.5,21.5 h 120.6 c 11.8,0 21.5,-9.7 21.5,-21.5 v -15.1 c 0.1,-11.8 -9.6,-21.5 -21.4,-21.5 z"
               id="path14469"
               style="fill:#ff0000" />
            <polygon
               points="351.7,406.3 490.7,406.3 376.4,121.1 376.4,120.9 376.2,120.9 236.9,120.9 237,121.1 "
               id="polygon14471"
               style="fill:#ff0000" />
            <polygon
               points="623.7,406.3 762.7,406.3 648.3,121.1 648.3,120.9 508.9,120.9 "
               id="polygon14473"
               style="fill:#ff0000" />
            <path
               d="M 104.3,120.9 H 31.9 c -11.8,0 -21.9,9.2 -21.9,21 v 244.9 c 0,8.5 5.3,16.3 12.4,19.5 h 196.4 z"
               id="path14475"
               style="fill:#ff0000" />
            <path
               d="m 968.9,120.9 h -188 l 114.8,285.4 h 82.7 c 7.1,-3.2 11.6,-11 11.6,-19.5 V 141.9 c 0,-11.8 -9.3,-21 -21.1,-21 z"
               id="path14477"
               style="fill:#ff0000" />
          </g>
        </g>
      </g>
      <g
         display="none"
         id="Capa_2-68"
         style="display:none" />
      <g
         display="none"
         id="Capa_3-77"
         style="display:none">
        <g
           display="inline"
           id="XMLID_528_-4"
           style="display:inline">
          <g
             id="XMLID_2864_-7">
            <path
               d="m -295.115,-19.288 c -15.214,6.737 -24.612,20.724 -30.829,35.639 -7.169,17.198 -11.31,35.881 -14.992,54.089 -7.519,37.173 -10.816,76.312 -2.523,113.65 7.941,35.758 27.651,67.435 57.682,88.698 29.222,20.689 65.052,30.788 100.487,33.167 37.115,2.492 76.078,-2.932 109.798,-19.132 33.565,-16.126 59.096,-43.918 70.596,-79.501 C 6.393,172.391 4.377,133.61 -8.874,99.523 -22.748,63.838 -47.557,33.298 -77.052,9.249 c -30.861,-25.164 -68.276,-46.583 -108.311,-51.688 -35.328,-4.505 -73.881,6.342 -96.752,34.95 -4.933,6.171 -8.813,12.974 -11.736,20.307 -0.715,1.793 2.185,2.572 2.893,0.797 13.176,-33.054 48.615,-52.32 83.037,-54.003 40.84,-1.997 80.003,16.718 112.695,39.626 59.351,41.588 104.572,109.559 92.812,184.644 -5.651,36.081 -24.609,68.498 -55.021,89.135 -30.553,20.733 -68.273,29.354 -104.783,30.385 -34.452,0.973 -69.825,-5.114 -100.831,-20.56 -31.954,-15.919 -57.236,-42.09 -70.265,-75.515 -13.134,-33.693 -13.966,-70.921 -9.603,-106.422 2.289,-18.628 6.083,-37.059 10.783,-55.221 4.199,-16.219 9.007,-33.091 19.169,-46.709 5.087,-6.816 11.572,-12.224 19.363,-15.673 1.763,-0.78 0.239,-3.365 -1.513,-2.59 l 0,0 z"
               id="XMLID_2805_-1"
               inkscape:connector-curvature="0"
               style="fill:#d60523" />
          </g>
        </g>
      </g>
    </g>
  </g>
</svg>
